<?xml version="1.0" encoding="UTF-8"?>
<!DOCTYPE svg PUBLIC "-//W3C//DTD SVG 1.1//EN" "http://www.w3.org/Graphics/SVG/1.1/DTD/svg11.dtd">
<!-- Creator: CorelDRAW X7 -->
<svg xmlns="http://www.w3.org/2000/svg" xml:space="preserve" width="297mm" height="120mm" version="1.1" style="shape-rendering:geometricPrecision; text-rendering:geometricPrecision; image-rendering:optimizeQuality; fill-rule:evenodd; clip-rule:evenodd"
viewBox="0 0 29700 12000"
 xmlns:xlink="http://www.w3.org/1999/xlink">
 <defs>
  <style type="text/css">
   <![CDATA[
    .fil0 {fill:black;fill-rule:nonzero}
    .fil1 {fill:url(#id0)}
    .fil3 {fill:url(#id1)}
    .fil5 {fill:url(#id2)}
    .fil2 {fill:url(#id3)}
    .fil4 {fill:url(#id4)}
   ]]>
  </style>
  <linearGradient id="id0" gradientUnits="userSpaceOnUse" x1="1148.89" y1="5971.22" x2="9577.33" y2="5971.22">
   <stop offset="0" style="stop-opacity:1; stop-color:#FFE500"/>
   <stop offset="0.439216" style="stop-opacity:1; stop-color:#DFC400"/>
   <stop offset="1" style="stop-opacity:1; stop-color:#BFA200"/>
  </linearGradient>
  <linearGradient id="id1" gradientUnits="userSpaceOnUse" xlink:href="#id0" x1="8067.7" y1="6328.63" x2="8825.2" y2="6328.63">
  </linearGradient>
  <linearGradient id="id2" gradientUnits="userSpaceOnUse" xlink:href="#id0" x1="8067.7" y1="7246.15" x2="8825.2" y2="7246.15">
  </linearGradient>
  <linearGradient id="id3" gradientUnits="userSpaceOnUse" xlink:href="#id0" x1="7139.51" y1="6328.63" x2="7897.01" y2="6328.63">
  </linearGradient>
  <linearGradient id="id4" gradientUnits="userSpaceOnUse" xlink:href="#id0" x1="7139.51" y1="7246.16" x2="7897.01" y2="7246.16">
  </linearGradient>
 </defs>
 <g id="Layer_x0020_1">
  <metadata id="CorelCorpID_0Corel-Layer"/>
  <g id="_2260798217632">
   <g>
    <path class="fil0" d="M13216 6499c-297,0 -582,-40 -855,-119 -273,-80 -492,-184 -659,-311l293 -648c159,113 347,206 565,279 218,72 438,109 661,109 170,0 308,-17 412,-51 105,-33 182,-80 231,-141 50,-60 74,-129 74,-207 0,-99 -38,-178 -116,-236 -78,-58 -181,-106 -308,-143 -128,-38 -269,-73 -423,-107 -154,-33 -308,-75 -462,-124 -154,-50 -295,-114 -422,-192 -127,-78 -231,-180 -311,-308 -79,-127 -119,-290 -119,-488 0,-213 57,-407 172,-582 116,-175 289,-315 521,-419 232,-105 523,-157 874,-157 233,0 463,27 690,82 227,55 427,137 600,247l-265 653c-174,-99 -347,-172 -521,-220 -173,-48 -343,-72 -510,-72 -166,0 -302,20 -409,59 -106,39 -182,89 -228,151 -46,62 -69,134 -69,215 0,96 39,173 117,231 78,59 180,106 308,141 127,35 268,71 422,106 154,36 308,76 462,122 154,46 295,108 422,186 128,78 231,181 311,308 80,128 120,289 120,484 0,209 -59,400 -176,573 -117,174 -291,314 -523,420 -232,106 -525,159 -879,159z"/>
    <path id="1" class="fil0" d="M15325 6435l0 -3940 828 0 0 1874 -186 -239c103,-191 250,-338 441,-440 191,-103 409,-154 653,-154 227,0 430,45 609,135 178,90 319,228 422,414 102,186 154,424 154,715l0 1635 -829 0 0 -1508c0,-230 -50,-400 -151,-510 -101,-110 -244,-164 -428,-164 -131,0 -248,27 -353,82 -104,55 -186,139 -244,252 -59,113 -88,259 -88,436l0 1412 -828 0z"/>
    <path id="2" class="fil0" d="M20747 6435l0 -557 -53 -122 0 -999c0,-177 -54,-315 -162,-414 -108,-99 -273,-149 -496,-149 -153,0 -302,24 -449,72 -147,48 -272,112 -375,194l-297 -579c156,-110 343,-195 563,-255 220,-60 443,-90 669,-90 436,0 774,102 1015,308 240,205 361,525 361,961l0 1630 -776 0zm-871 43c-223,0 -414,-38 -573,-114 -160,-76 -282,-180 -367,-311 -85,-131 -127,-278 -127,-441 0,-170 41,-319 125,-446 83,-127 215,-227 395,-300 181,-73 416,-109 707,-109l759 0 0 483 -669 0c-195,0 -328,32 -401,96 -73,64 -109,143 -109,239 0,106 42,190 125,252 83,62 197,93 342,93 139,0 262,-33 372,-98 110,-66 190,-162 239,-289l128 382c-60,184 -170,324 -330,419 -159,96 -364,144 -616,144z"/>
    <path id="3" class="fil0" d="M22272 6435l0 -2857 791 0 0 807 -112 -233c85,-202 222,-355 409,-460 188,-104 416,-156 686,-156l0 764c-36,-3 -68,-6 -96,-8 -28,-1 -58,-2 -90,-2 -227,0 -410,64 -550,194 -140,129 -210,330 -210,602l0 1349 -828 0z"/>
    <path id="4" class="fil0" d="M24550 6435l-11 -2857 824 5 5 2852 -818 0zm404 -3255c-152,0 -276,-45 -372,-133 -96,-89 -143,-198 -143,-329 0,-131 47,-241 143,-330 96,-88 220,-132 372,-132 152,0 276,41 372,124 95,84 143,191 143,322 0,138 -47,252 -141,342 -94,91 -218,136 -374,136z"/>
    <path id="5" class="fil0" d="M27891 6435l0 -557 -53 -122 0 -999c0,-177 -54,-315 -162,-414 -108,-99 -274,-149 -497,-149 -152,0 -302,24 -449,72 -147,48 -271,112 -374,194l-298 -579c156,-110 344,-195 563,-255 220,-60 443,-90 670,-90 435,0 773,102 1014,308 241,205 361,525 361,961l0 1630 -775 0zm-871 43c-223,0 -414,-38 -574,-114 -159,-76 -281,-180 -366,-311 -85,-131 -128,-278 -128,-441 0,-170 42,-319 125,-446 83,-127 215,-227 396,-300 180,-73 416,-109 706,-109l760 0 0 483 -670 0c-194,0 -328,32 -401,96 -72,64 -108,143 -108,239 0,106 41,190 124,252 84,62 198,93 343,93 138,0 262,-33 372,-98 109,-66 189,-162 239,-289l127 382c-60,184 -170,324 -329,419 -159,96 -365,144 -616,144z"/>
    <polygon class="fil0" points="11752,9101 11749,7049 12039,7049 12042,8846 13153,8849 13153,9101 "/>
    <path id="1" class="fil0" d="M13452 9101l-3 -1554 282 3 0 1551 -279 0zm138 -1853c-55,0 -100,-17 -136,-53 -37,-35 -55,-78 -55,-129 0,-52 18,-96 55,-132 36,-35 81,-52 136,-52 55,0 100,17 136,51 36,34 54,77 54,128 0,52 -17,97 -52,133 -36,36 -82,54 -138,54z"/>
    <polygon id="2" class="fil0" points="14674,9101 13994,7547 14287,7547 14891,8954 14751,8954 15366,7547 15642,7547 14962,9101 "/>
    <path id="3" class="fil0" d="M15908 9101l-3 -1554 282 3 0 1551 -279 0zm138 -1853c-55,0 -100,-17 -136,-53 -36,-35 -54,-78 -54,-129 0,-52 18,-96 54,-132 36,-35 81,-52 136,-52 55,0 100,17 137,51 36,34 54,77 54,128 0,52 -18,97 -53,133 -35,36 -81,54 -138,54z"/>
    <path id="4" class="fil0" d="M16723 9101l0 -1554 270 0 0 419 -44 -111c51,-102 129,-181 235,-238 105,-56 228,-85 369,-85 127,0 239,25 335,74 97,49 173,123 228,223 54,99 82,225 82,378l0 894 -282 0 0 -862c0,-151 -36,-264 -110,-340 -73,-76 -176,-114 -309,-114 -99,0 -186,19 -261,58 -74,39 -131,97 -171,173 -40,76 -60,171 -60,284l0 801 -282 0z"/>
    <path id="5" class="fil0" d="M19400 9687c-143,0 -281,-20 -415,-60 -134,-40 -243,-97 -327,-172l135 -217c72,63 161,112 267,148 105,37 215,55 331,55 183,0 318,-43 404,-129 86,-86 129,-217 129,-393l0 -328 30 -308 -15 -311 0 -425 267 0 0 1343c0,273 -69,474 -206,603 -136,129 -337,194 -600,194zm-36 -651c-150,0 -284,-32 -403,-95 -118,-64 -212,-152 -281,-265 -69,-114 -104,-245 -104,-393 0,-151 35,-282 104,-394 69,-113 163,-200 281,-263 119,-62 253,-94 403,-94 133,0 254,27 364,81 109,54 197,136 262,248 66,111 98,252 98,422 0,168 -32,308 -98,419 -65,111 -153,195 -262,251 -110,55 -231,83 -364,83zm33 -246c103,0 195,-22 275,-65 80,-43 143,-102 189,-178 46,-77 69,-164 69,-264 0,-100 -23,-188 -69,-264 -46,-76 -109,-135 -189,-177 -80,-42 -172,-63 -275,-63 -104,0 -196,21 -277,63 -81,42 -145,101 -191,177 -46,76 -69,164 -69,264 0,100 23,187 69,264 46,76 110,135 191,178 81,43 173,65 277,65z"/>
    <path id="6" class="fil0" d="M20809 9118c-54,0 -101,-19 -140,-57 -39,-38 -59,-86 -59,-145 0,-59 20,-106 59,-144 39,-37 86,-55 140,-55 53,0 99,18 137,55 38,38 57,85 57,144 0,59 -19,107 -57,145 -38,38 -84,57 -137,57z"/>
   </g>
   <g id="s_x0020_sharia.cdr">
    <polygon class="fil1" points="1149,9108 1928,7753 3357,7753 6291,2835 9577,2835 8766,4222 7220,4222 4211,9108 "/>
    <g>
     <rect class="fil2" x="7140" y="5945" width="757" height="768"/>
     <rect class="fil3" x="8068" y="5945" width="757" height="768"/>
     <rect class="fil4" x="7140" y="6862" width="757" height="768"/>
     <rect class="fil5" x="8068" y="6862" width="757" height="768"/>
    </g>
   </g>
  </g>
 </g>
</svg>
